<?xml version="1.0" encoding="UTF-8"?><svg id="Layer_2" xmlns="http://www.w3.org/2000/svg" viewBox="0 0 308.86 308.86"><defs><style>.cls-1,.cls-2{fill:#fff;}.cls-3{fill:#179abd;}.cls-2{opacity:.48;}</style></defs><g id="Layer_1-2"><circle class="cls-3" cx="154.43" cy="154.43" r="154.43"/><path class="cls-2" d="m247.53,131.61h-3.93v-5.08c-21.42-3.91-41.44-3.91-60.06,0v5.08h-3.4c-7.85,0-14.24,5.44-14.24,12.13v9.36c0,3.34,1.63,6.56,4.46,8.84l14.06,11.27c1.98,8.03,7.19,14.79,14.18,18.82,6.77,3.9,11.03,11.04,11.03,18.85v6.23h-4.88c-2.34,0-4.29,1.66-4.74,3.87h-.51c-4.07,0-7.36,3.3-7.36,7.36h45.45c0-4.07-3.3-7.36-7.36-7.36h-.51c-.45-2.21-2.4-3.87-4.74-3.87h-7.43v-6.23c0-7.82,4.26-14.95,11.03-18.85,6.83-3.94,11.96-10.49,14.04-18.29l14.72-11.8c2.84-2.27,4.46-5.5,4.46-8.84v-9.36c0-6.69-6.39-12.13-14.24-12.13Zm-74.48,21.49v-9.36c0-2.69,3.25-4.97,7.09-4.97h3.4v24.57l-8.71-6.98c-1.15-.92-1.78-2.08-1.78-3.25Zm81.57,0c0,1.18-.63,2.33-1.78,3.25l-9.23,7.4v-24.99h3.93c3.84,0,7.09,2.28,7.09,4.97v9.36Z"/><path class="cls-2" d="m130.57,131.61h-3.93v-5.08c-21.42-3.91-41.44-3.91-60.06,0v5.08h-3.4c-7.85,0-14.24,5.44-14.24,12.13v9.36c0,3.34,1.63,6.56,4.46,8.84l14.06,11.27c1.98,8.03,7.19,14.79,14.18,18.82,6.77,3.9,11.03,11.04,11.03,18.85v6.23h-4.88c-2.34,0-4.29,1.66-4.74,3.87h-.51c-4.07,0-7.36,3.3-7.36,7.36h45.45c0-4.07-3.3-7.36-7.36-7.36h-.51c-.45-2.21-2.4-3.87-4.74-3.87h-7.43v-6.23c0-7.82,4.26-14.95,11.03-18.85,6.83-3.94,11.96-10.49,14.04-18.29l14.72-11.8c2.84-2.27,4.46-5.5,4.46-8.84v-9.36c0-6.69-6.39-12.13-14.24-12.13Zm-74.48,21.49v-9.36c0-2.69,3.25-4.97,7.09-4.97h3.4v24.57l-8.71-6.98c-1.15-.92-1.78-2.08-1.78-3.25Zm81.57,0c0,1.18-.63,2.33-1.78,3.25l-9.23,7.4v-24.99h3.93c3.84,0,7.09,2.28,7.09,4.97v9.36Z"/><path class="cls-1" d="m201.99,91.83h-5.55v-7.17c-30.23-5.52-58.48-5.52-84.76,0v7.17h-4.8c-11.08,0-20.1,7.68-20.1,17.12v13.21c0,4.72,2.3,9.26,6.3,12.47l19.84,15.9c2.79,11.34,10.15,20.88,20.01,26.57,9.55,5.51,15.56,15.58,15.56,26.61v8.79h-6.88c-3.3,0-6.06,2.34-6.69,5.46h-.72c-5.74,0-10.39,4.65-10.39,10.39h64.14c0-5.74-4.65-10.39-10.39-10.39h-.72c-.64-3.11-3.39-5.46-6.69-5.46h-10.48v-8.79c0-11.03,6.01-21.1,15.56-26.61,9.64-5.56,16.88-14.81,19.81-25.81l20.78-16.66c4-3.21,6.3-7.76,6.3-12.47v-13.21c0-9.44-9.02-17.12-20.1-17.12Zm-105.12,30.33v-13.21c0-3.8,4.58-7.02,10-7.02h4.8v34.67l-12.29-9.85c-1.62-1.3-2.52-2.93-2.52-4.59Zm115.12,0c0,1.66-.89,3.29-2.52,4.59l-13.03,10.45v-35.27h5.55c5.42,0,10,3.21,10,7.02v13.21Z"/></g></svg>