<?xml version="1.0" encoding="UTF-8"?><svg xmlns="http://www.w3.org/2000/svg" xmlns:xlink="http://www.w3.org/1999/xlink" viewBox="0 0 308.86 308.86"><defs><style>.cls-1{fill:#fff;}.cls-2{fill:#179abd;}.cls-3{fill:url(#linear-gradient);mix-blend-mode:screen;}.cls-4{fill:none;isolation:isolate;}</style><linearGradient id="linear-gradient" x1="158.55" y1="198.95" x2="148.15" y2="153.1" gradientUnits="userSpaceOnUse"><stop offset="0" stop-color="#fff"/><stop offset="1" stop-color="#000"/></linearGradient></defs><g class="cls-4"><g id="Layer_2"><g id="Layer_1-2"><circle class="cls-2" cx="154.43" cy="154.43" r="154.43"/><polygon class="cls-3" points="37.68 186.5 260.52 186.5 260.52 128.07 222.79 128.07 37.68 186.5"/><path class="cls-1" d="m259.86,116.29l-2.63-17.84-17.43,5.68.93,2.85,11.67-3.8c-4.77,7.01-16.62,23.28-33.07,37.91-19.76,17.57-50.43,36.32-84.27,25.8-34.89-10.84-59.72-7.9-74.4-3.53-16.05,4.78-23.7,12.11-24.02,12.42l2.09,2.15c.3-.29,30.35-28.41,95.44-8.18,27.86,8.66,58.01-.49,87.2-26.47,16.9-15.04,29.01-31.77,33.72-38.74l1.8,12.18,2.97-.44Z"/><rect class="cls-1" x="37.68" y="188.47" width="222.84" height="3"/></g></g></g></svg>