<?xml version="1.0" encoding="UTF-8"?><svg id="Layer_2" xmlns="http://www.w3.org/2000/svg" viewBox="0 0 308.86 308.86"><defs><style>.cls-1{fill:#fff;}.cls-2{fill:#179abd;}</style></defs><g id="Layer_1-2"><circle class="cls-2" cx="154.43" cy="154.43" r="154.43"/><path class="cls-1" d="m208.35,206.68c-29.78,0-53.92,24.14-53.92,53.92,0-29.78-24.14-53.92-53.92-53.92,29.78,0,53.92-24.14,53.92-53.92,0,29.78,24.14,53.92,53.92,53.92Z"/><path class="cls-1" d="m256.56,145.2c-19.14,0-34.66,15.52-34.66,34.66,0-19.14-15.52-34.66-34.66-34.66,19.14,0,34.66-15.52,34.66-34.66,0,19.14,15.52,34.66,34.66,34.66Z"/><path class="cls-1" d="m124.18,114.48c-19.14,0-34.66,15.52-34.66,34.66,0-19.14-15.52-34.66-34.66-34.66,19.14,0,34.66-15.52,34.66-34.66,0,19.14,15.52,34.66,34.66,34.66Z"/></g></svg>