<?xml version="1.0" encoding="UTF-8"?><svg id="Layer_2" xmlns="http://www.w3.org/2000/svg" viewBox="0 0 308.86 309.26"><defs><style>.cls-1,.cls-2{fill:#fff;}.cls-3{fill:#179abd;}.cls-2{opacity:.48;}</style></defs><g id="Layer_1-2"><circle class="cls-3" cx="154.43" cy="154.43" r="154.43"/><path class="cls-2" d="m57.4,274.58c50.04-11.99,77.75-39.81,57.52-83.75h77.3c-21.08,41.1,1.55,66.7,57.65,85.02,0,0-86.83,76.03-192.47-1.26Z"/><path class="cls-3" d="m105.03,300.67c32.5-20.37,44.05-52.94,41.04-93.99h14.02c-8.53,35.91,7.52,66.86,46.17,93.26,0,0-47.88,20.2-101.22.73Z"/><polygon class="cls-2" points="27.35 182.63 151.51 85.52 282.31 182.32 27.35 182.63"/><polygon class="cls-1" points="206.26 209.28 96.77 209.28 96.77 99.79 151.51 55.27 206.26 99.79 206.26 209.28"/><path class="cls-3" d="m145.22,188.81v-57.87l-13.17,3.5v-11.47l19.32-8.49h8.71v74.33h-14.87Z"/></g></svg>